<svg width="669" height="400" viewBox="0 0 669 400" xmlns="http://www.w3.org/2000/svg" xmlns:xlink="http://www.w3.org/1999/xlink">
    <defs>
        <path id="26e43o41ja" d="M0 0h21.679v25.844H0z"/>
    </defs>
    <g fill="none" fill-rule="evenodd">
        <path d="M0 0h668.896v400H0z"/>
        <path fill="#F3FF00" d="m407.691 360.892-10.154-25.628h-6.775l-10.153 25.628h6.395l7.146-18.717 7.145 18.717zM303.768 360.906l-10.154-25.628h-6.774l-10.154 25.628h6.395l7.146-18.717 7.145 18.717zM311.613 360.906l-10.058-25.844h6.315l7.215 19.877 7.174-19.877h6.315l-10.02 25.844zM274.54 335l-6.677 19.877-6.715-19.875.001-.002h-5.88l.001.002-6.677 19.875L241.878 335H236l9.362 25.844h6.46l6.393-17.713 6.416 17.713h6.461L280.418 335zM330.996 360.906v-25.844h22.733v5.502h-17.196v4.473h16.923v5.502h-16.923v4.865h17.196v5.502z"/>
        <g transform="translate(410.321 335.156)">
            <mask id="kv40oc8djb" fill="#fff">
                <use xlink:href="#26e43o41ja"/>
            </mask>
            <path d="M5.537 20.342h7.134c2.104 0 3.353-.387 3.353-2.247 0-1.628-1.17-2.676-3.353-2.676H5.537v4.923zm0-10.425h6.939c1.872 0 3.042-.734 3.042-2.4 0-1.588-1.17-2.015-3.042-2.015h-6.94v4.415zM0 25.844V0h13.684c4.953 0 7.487 3.138 7.487 6.587 0 3.255-2.026 5.425-4.483 5.928 2.767.427 4.991 3.1 4.991 6.355 0 3.874-2.613 6.974-7.566 6.974H0z" fill="#F3FF00" mask="url(#kv40oc8djb)"/>
        </g>
        <path fill="#F3FF00" d="m378.82 355.089-12.963-.003.002-19.835h-5.853l-.002 19.835h-.001v5.819h5.853v-.001l10.751.001.005-.013h-.092z"/>
        <text font-family="Pique" font-size="120" font-weight="800" fill="#F3FF00">
                    <tspan x="231.28" y="138">NEW</tspan>
                </text>
        <text font-family="PadyakkeExpandedOne-Regular, Padyakke Expanded One" font-size="100" fill="#F3FF00">
                    <tspan x="67.05" y="253">OFFICE!</tspan>
                </text>
    </g>
</svg>
